<svg width="174" height="32" viewBox="0 0 174 32" fill="none" xmlns="http://www.w3.org/2000/svg">
<path d="M29.8276 9.90784H26.5765L22.8121 14.6509H22.6695L18.9799 9.90784H15.569L21.1584 17.1088L15.569 24.2266H18.8182L29.8276 9.90784Z" fill="#ED6B38"/>
<path d="M24.2435 21.1749L26.5767 24.2285H29.8271L25.8933 19.0424L24.2435 21.1749Z" fill="#ED6B38"/>
<path d="M35.8052 6.14786V9.91044H39.7403V12.1349H35.8052V20.5191C35.8052 23.1214 39.0563 22.0782 39.7403 21.7739V23.8833C38.9413 24.3014 33.2099 26.1034 33.2099 20.746V12.1317H31.2123L35.8052 6.14786Z" fill="black"/>
<path d="M65.1765 9.6764V11.7008C63.9549 11.7008 62.2565 11.6439 60.397 14.6375V24.2259H57.8017V9.90721H60.397V11.7807C61.6077 9.90715 63.4717 9.67133 65.1765 9.67133" fill="black"/>
<path d="M74.7803 9.6764V11.7008C73.5588 11.7008 71.861 11.6439 70.0008 14.6375V24.2259H67.4055V9.90721H70.0008V11.7807C71.2115 9.90715 73.0755 9.67133 74.7803 9.67133" fill="black"/>
<path d="M75.6964 16.9573C75.6514 15.9581 75.8046 14.9599 76.1472 14.0202C76.4898 13.0805 77.0151 12.218 77.6927 11.4823C79.132 10.1444 81.0243 9.40067 82.9894 9.40067C84.9545 9.40067 86.8468 10.1444 88.2861 11.4823C89.5844 13.0112 90.2972 14.9518 90.2972 16.9576C90.2972 18.9634 89.5844 20.904 88.2861 22.4329C86.8466 23.7706 84.9544 24.5141 82.9894 24.5141C81.0244 24.5141 79.1321 23.7706 77.6927 22.4329C77.0152 21.6971 76.49 20.8344 76.1474 19.8946C75.8047 18.9548 75.6515 17.9565 75.6964 16.9573ZM79.7037 20.8502C80.5977 21.683 81.774 22.1461 82.9958 22.1461C84.2176 22.1461 85.3939 21.683 86.2878 20.8502C87.2292 19.9846 87.6997 18.6824 87.6992 16.9432C87.6988 15.2041 87.2283 13.9067 86.2878 13.051C85.3899 12.2262 84.2151 11.7684 82.9958 11.7684C81.7765 11.7684 80.6017 12.2262 79.7037 13.051C78.7624 13.9063 78.2917 15.2037 78.2917 16.9432C78.2917 18.6828 78.7624 19.9851 79.7037 20.8502Z" fill="black"/>
<path d="M14.6409 16.9573V17.8695H3.63336C3.71518 19.0563 4.24536 20.1677 5.11637 20.9781C5.95334 21.7187 7.22242 22.0895 8.92363 22.0903C10.6036 22.0966 12.247 21.6002 13.6424 20.6648H13.7856V23.1745C12.0558 24.1012 10.1152 24.5637 8.15336 24.5168C7.19859 24.5604 6.24508 24.407 5.3522 24.0661C4.45931 23.7251 3.64618 23.2041 2.96344 22.5352C2.29439 21.8181 1.77661 20.9736 1.44098 20.0521C1.10536 19.1305 0.958769 18.1508 1.00995 17.1714C0.930054 15.1679 1.54472 13.1984 2.74994 11.5961C3.90865 10.1322 5.6007 9.40027 7.82607 9.40027C10.0514 9.40027 11.7433 10.1322 12.9016 11.5961C14.0841 13.1281 14.6988 15.0228 14.6409 16.9573ZM3.63336 15.7593H12.0424C12.046 15.1728 11.9245 14.5923 11.6861 14.0564C11.4477 13.5205 11.0978 13.0415 10.6598 12.6514C9.8723 11.9696 8.86518 11.5948 7.82351 11.5961C6.78535 11.5929 5.7816 11.9681 5.00003 12.6514C4.56553 13.0436 4.21891 13.5232 3.98293 14.0589C3.74694 14.5945 3.62694 15.174 3.6308 15.7593" fill="black"/>
<path d="M55.3746 16.9573V17.8695H44.3671C44.4489 19.0563 44.9791 20.1677 45.8501 20.9781C46.6862 21.7187 47.9553 22.0895 49.6574 22.0903C51.3375 22.0966 52.9811 21.6002 54.3768 20.6648H54.5194V23.1745C52.7897 24.1012 50.8494 24.5637 48.8877 24.5168C47.9329 24.5608 46.9793 24.4075 46.0864 24.0665C45.1935 23.7256 44.3804 23.2044 43.6978 22.5352C43.0291 21.8186 42.5115 20.9746 42.1758 20.0536C41.8402 19.1327 41.6935 18.1535 41.7443 17.1746C41.6644 15.1712 42.2788 13.2018 43.4837 11.5993C44.6432 10.1354 46.3353 9.40347 48.5598 9.40347C50.7843 9.40347 52.4764 10.1354 53.6359 11.5993C54.8185 13.1313 55.4332 15.026 55.3753 16.9605M44.3677 15.7625H52.7806C52.784 15.176 52.6623 14.5955 52.4238 14.0596C52.1853 13.5237 51.8354 13.0448 51.3974 12.6546C50.6094 11.9727 49.6019 11.598 48.5598 11.5993C47.5218 11.5962 46.5183 11.9714 45.737 12.6546C45.3025 13.0468 44.9558 13.5264 44.7199 14.0621C44.4839 14.5977 44.3639 15.1772 44.3677 15.7625Z" fill="black"/>
<path d="M94.4364 24.4416V6H101.01C102.445 6 103.633 6.26114 104.576 6.78341C105.518 7.30568 106.224 8.02005 106.692 8.92652C107.16 9.82699 107.394 10.8415 107.394 11.9701C107.394 13.1047 107.157 14.1252 106.683 15.0317C106.215 15.9322 105.506 16.6465 104.558 17.1748C103.615 17.6971 102.43 17.9582 101.001 17.9582H96.4805V15.599H100.749C101.655 15.599 102.391 15.4429 102.955 15.1308C103.519 14.8126 103.933 14.3804 104.197 13.8341C104.462 13.2878 104.594 12.6665 104.594 11.9701C104.594 11.2737 104.462 10.6554 104.197 10.1151C103.933 9.57486 103.516 9.15164 102.946 8.84548C102.382 8.53932 101.637 8.38624 100.713 8.38624H97.2188V24.4416H94.4364Z" fill="#ED6B38"/>
<path d="M129.687 24.7207C128.391 24.7207 127.259 24.4236 126.293 23.8293C125.326 23.235 124.576 22.4035 124.042 21.335C123.507 20.2664 123.24 19.0178 123.24 17.589C123.24 16.1543 123.507 14.8996 124.042 13.8251C124.576 12.7505 125.326 11.9161 126.293 11.3218C127.259 10.7275 128.391 10.4303 129.687 10.4303C130.984 10.4303 132.116 10.7275 133.082 11.3218C134.049 11.9161 134.799 12.7505 135.333 13.8251C135.868 14.8996 136.135 16.1543 136.135 17.589C136.135 19.0178 135.868 20.2664 135.333 21.335C134.799 22.4035 134.049 23.235 133.082 23.8293C132.116 24.4236 130.984 24.7207 129.687 24.7207ZM129.697 22.4606C130.537 22.4606 131.233 22.2385 131.786 21.7942C132.338 21.35 132.746 20.7587 133.01 20.0203C133.28 19.2819 133.415 18.4685 133.415 17.58C133.415 16.6976 133.28 15.8871 133.01 15.1488C132.746 14.4044 132.338 13.8071 131.786 13.3568C131.233 12.9066 130.537 12.6815 129.697 12.6815C128.85 12.6815 128.148 12.9066 127.589 13.3568C127.037 13.8071 126.626 14.4044 126.356 15.1488C126.092 15.8871 125.96 16.6976 125.96 17.58C125.96 18.4685 126.092 19.2819 126.356 20.0203C126.626 20.7587 127.037 21.35 127.589 21.7942C128.148 22.2385 128.85 22.4606 129.697 22.4606Z" fill="#ED6B38"/>
<path d="M139.14 29.6283V10.6104H141.77V12.8526H141.995C142.151 12.5644 142.376 12.2312 142.67 11.853C142.964 11.4748 143.372 11.1447 143.895 10.8625C144.417 10.5744 145.107 10.4303 145.966 10.4303C147.082 10.4303 148.079 10.7125 148.955 11.2767C149.832 11.841 150.519 12.6545 151.017 13.717C151.522 14.7796 151.774 16.0582 151.774 17.553C151.774 19.0478 151.525 20.3295 151.026 21.398C150.528 22.4606 149.844 23.28 148.973 23.8563C148.103 24.4266 147.109 24.7117 145.993 24.7117C145.152 24.7117 144.465 24.5707 143.931 24.2885C143.402 24.0064 142.988 23.6762 142.688 23.298C142.388 22.9198 142.157 22.5836 141.995 22.2895H141.833V29.6283H139.14ZM141.779 17.526C141.779 18.4985 141.92 19.3509 142.202 20.0833C142.484 20.8157 142.892 21.389 143.426 21.8032C143.961 22.2114 144.615 22.4155 145.389 22.4155C146.194 22.4155 146.866 22.2024 147.406 21.7762C147.947 21.344 148.355 20.7587 148.631 20.0203C148.913 19.2819 149.054 18.4505 149.054 17.526C149.054 16.6135 148.916 15.7941 148.64 15.0677C148.37 14.3413 147.962 13.768 147.415 13.3478C146.875 12.9276 146.2 12.7175 145.389 12.7175C144.609 12.7175 143.949 12.9186 143.408 13.3208C142.874 13.723 142.469 14.2843 142.193 15.0047C141.917 15.7251 141.779 16.5655 141.779 17.526Z" fill="#ED6B38"/>
<path d="M157.483 6V24.4416H154.79V6H157.483Z" fill="#ED6B38"/>
<path d="M167.066 24.7207C165.703 24.7207 164.53 24.4296 163.545 23.8473C162.567 23.259 161.81 22.4336 161.276 21.371C160.748 20.3024 160.484 19.0508 160.484 17.616C160.484 16.1993 160.748 14.9507 161.276 13.8701C161.81 12.7895 162.555 11.9461 163.509 11.3398C164.47 10.7335 165.592 10.4303 166.877 10.4303C167.657 10.4303 168.414 10.5594 169.146 10.8175C169.878 11.0756 170.536 11.4809 171.118 12.0331C171.7 12.5854 172.16 13.3028 172.496 14.1853C172.832 15.0617 173 16.1273 173 17.3819V18.3364H162.005V16.3194H170.362C170.362 15.611 170.218 14.9837 169.929 14.4374C169.641 13.8851 169.236 13.4499 168.714 13.1317C168.198 12.8135 167.591 12.6545 166.895 12.6545C166.138 12.6545 165.478 12.8406 164.914 13.2128C164.356 13.5789 163.923 14.0592 163.617 14.6535C163.317 15.2418 163.167 15.8811 163.167 16.5715V18.1473C163.167 19.0718 163.329 19.8582 163.653 20.5065C163.983 21.1549 164.443 21.6501 165.031 21.9923C165.619 22.3285 166.307 22.4966 167.093 22.4966C167.603 22.4966 168.068 22.4245 168.489 22.2805C168.909 22.1304 169.272 21.9083 169.578 21.6141C169.884 21.32 170.119 20.9568 170.281 20.5246L172.829 20.9838C172.625 21.7342 172.259 22.3915 171.73 22.9558C171.208 23.5141 170.551 23.9493 169.758 24.2615C168.972 24.5677 168.074 24.7207 167.066 24.7207Z" fill="#ED6B38"/>
<path d="M111.585 12.5745C113.275 11.4503 115.557 11.9093 116.681 13.5994L116.733 13.6775L110.612 17.7489L110.56 17.6708C109.436 15.9807 109.895 13.6988 111.585 12.5745Z" stroke="#ED6B38" stroke-width="2.2"/>
<path d="M111 20.1916H119C120.049 20.1916 120.9 21.0427 120.9 22.092C120.9 23.1414 120.049 23.9924 119 23.9924H111C109.951 23.9924 109.1 23.1414 109.1 22.092C109.1 21.0427 109.951 20.1916 111 20.1916Z" stroke="#ED6B38" stroke-width="2.2"/>
</svg>
